<svg width="20" height="20" viewBox="0 0 20 20" fill="none" xmlns="http://www.w3.org/2000/svg">
<path d="M6.50004 3.93773C7.82616 3.17215 9.36674 2.86252 10.8857 3.05628C12.4046 3.25004 13.8181 3.9365 14.9096 5.01047C16.0011 6.08444 16.7103 7.48667 16.9285 9.00227C17.1468 10.5179 16.862 12.0632 16.118 13.4015C15.3739 14.7398 14.2115 15.7972 12.8089 16.4117C11.4064 17.0261 9.84102 17.1638 8.35277 16.8034C6.86451 16.4431 5.53545 15.6048 4.56926 14.4169C3.60307 13.2289 3.05305 11.757 3.0035 10.2265L3 9.99973L3.0035 9.77293C3.04211 8.58325 3.38346 7.42307 3.99528 6.40204C4.6071 5.38101 5.46918 4.53285 6.50004 3.93773Z" fill="white" stroke="#B8B8B8" stroke-width="2"/>
</svg>
