<svg width="30" height="30" viewBox="0 0 30 30" fill="none" xmlns="http://www.w3.org/2000/svg">
<path d="M10.0001 6.33962C11.8945 5.24593 14.0953 4.8036 16.2653 5.0804C18.4352 5.35719 20.4545 6.33786 22.0137 7.8721C23.573 9.40635 24.5861 11.4095 24.8979 13.5747C25.2097 15.7398 24.8029 17.9475 23.7399 19.8593C22.677 21.7712 21.0164 23.2817 19.0128 24.1595C17.0091 25.0373 14.7729 25.2339 12.6468 24.7192C10.5207 24.2045 8.62207 23.0068 7.2418 21.3098C5.86153 19.6128 5.07579 17.5099 5.005 15.3236L5 14.9996L5.005 14.6756C5.06016 12.9761 5.5478 11.3187 6.42183 9.86006C7.29585 8.40144 8.5274 7.18979 10.0001 6.33962Z" fill="white" stroke="#B8B8B8" stroke-width="2"/>
</svg>
