<svg width="64" height="64" viewBox="0 0 64 64" fill="none" xmlns="http://www.w3.org/2000/svg">
<path d="M19.5003 10.3491C24.2365 7.61484 29.7385 6.50899 35.1632 7.20099C40.588 7.89299 45.6362 10.3447 49.5342 14.1803C53.4322 18.0159 55.9651 23.0239 56.7445 28.4367C57.524 33.8496 56.5071 39.3687 53.8497 44.1484C51.1923 48.928 47.041 52.7044 42.0319 54.8989C37.0228 57.0934 31.4323 57.5849 26.1172 56.2981C20.802 55.0113 16.0554 52.0172 12.6048 47.7746C9.15413 43.532 7.18981 38.2749 7.01284 32.8091L7.00034 31.9991L7.01284 31.1891C7.15074 26.9402 8.36983 22.7967 10.5549 19.1502C12.7399 15.5036 15.8187 12.4745 19.5003 10.3491Z" fill="white" stroke="#B8B8B8" stroke-width="2"/>
<path d="M18.6667 23.6667H45.3333" stroke="black" stroke-width="2" stroke-linecap="round" stroke-linejoin="round"/>
<path d="M28.6667 30.3333V40.3333" stroke="black" stroke-width="2" stroke-linecap="round" stroke-linejoin="round"/>
<path d="M35.3333 30.3333V40.3333" stroke="black" stroke-width="2" stroke-linecap="round" stroke-linejoin="round"/>
<path d="M20.3333 23.6667L22 43.6667C22 44.5507 22.3512 45.3986 22.9763 46.0237C23.6014 46.6488 24.4493 47 25.3333 47H38.6667C39.5507 47 40.3986 46.6488 41.0237 46.0237C41.6488 45.3986 42 44.5507 42 43.6667L43.6667 23.6667" stroke="black" stroke-width="2" stroke-linecap="round" stroke-linejoin="round"/>
<path d="M27 23.6667V18.6667C27 18.2246 27.1756 17.8007 27.4882 17.4882C27.8007 17.1756 28.2246 17 28.6667 17H35.3333C35.7754 17 36.1993 17.1756 36.5118 17.4882C36.8244 17.8007 37 18.2246 37 18.6667V23.6667" stroke="black" stroke-width="2" stroke-linecap="round" stroke-linejoin="round"/>
</svg>
