<svg width="64" height="64" viewBox="0 0 64 64" fill="none" xmlns="http://www.w3.org/2000/svg">
<path d="M19.5003 10.3491C24.2365 7.61484 29.7385 6.50899 35.1632 7.20099C40.588 7.89299 45.6362 10.3447 49.5342 14.1803C53.4322 18.0159 55.9651 23.0239 56.7445 28.4367C57.524 33.8496 56.5071 39.3687 53.8497 44.1484C51.1923 48.928 47.041 52.7044 42.0319 54.8989C37.0228 57.0934 31.4323 57.5849 26.1172 56.2981C20.802 55.0113 16.0554 52.0172 12.6048 47.7746C9.15413 43.532 7.18981 38.2749 7.01284 32.8091L7.00034 31.9991L7.01284 31.1891C7.15074 26.9402 8.36983 22.7967 10.5549 19.1502C12.7399 15.5036 15.8187 12.4745 19.5003 10.3491Z" fill="white" stroke="#B8B8B8" stroke-width="2"/>
<path d="M45.3333 30.3334C44.9257 27.4004 43.565 24.6828 41.461 22.5992C39.357 20.5156 36.6262 19.1816 33.6894 18.8026C30.7526 18.4237 27.7727 19.0209 25.2086 20.5021C22.6446 21.9834 20.6387 24.2666 19.5 27M18.6667 20.3334V27H25.3333" stroke="black" stroke-width="2" stroke-linecap="round" stroke-linejoin="round"/>
<path d="M18.6667 33.6667C19.0743 36.5996 20.4349 39.3172 22.5389 41.4008C24.643 43.4844 27.3737 44.8184 30.3105 45.1974C33.2473 45.5763 36.2272 44.9792 38.7913 43.4979C41.3553 42.0166 43.3612 39.7334 44.4999 37M45.3333 43.6666V37H38.6666" stroke="black" stroke-width="2" stroke-linecap="round" stroke-linejoin="round"/>
</svg>
