<svg width="64" height="64" viewBox="0 0 64 64" fill="none" xmlns="http://www.w3.org/2000/svg">
<rect width="64" height="64" fill="white"/>
<g filter="url(#filter0_d_1_23)">
<path d="M18.0004 7.75119C23.3048 4.6889 29.467 3.45037 35.5426 4.2254C41.6183 5.00042 47.2722 7.74625 51.6379 12.0421C56.0037 16.3379 58.8404 21.9468 59.7134 28.0091C60.5864 34.0715 59.4475 40.2528 56.4712 45.6059C53.495 50.9591 48.8455 55.1886 43.2354 57.6464C37.6253 60.1042 31.3641 60.6547 25.4112 59.2135C19.4583 57.7723 14.1421 54.4189 10.2775 49.6672C6.4128 44.9156 4.21279 39.0278 4.01458 32.9061L4.00058 31.9989L4.01458 31.0917C4.16903 26.3331 5.53439 21.6924 7.98161 17.6083C10.4288 13.5242 13.8771 10.1316 18.0004 7.75119Z" fill="white"/>
</g>
<path d="M50.6664 29.6667C50.0958 25.5606 48.1909 21.756 45.2453 18.839C42.2997 15.922 38.4766 14.0543 34.3652 13.5238C30.2537 12.9933 26.0818 13.8293 22.4922 15.9031C18.9026 17.9768 16.0944 21.1733 14.5001 25.0001M13.3335 15.6668V25.0001H22.6667" stroke="black" stroke-width="2" stroke-linecap="round" stroke-linejoin="round"/>
<path d="M13.3335 34.3333C13.9041 38.4394 15.809 42.244 18.7546 45.161C21.7002 48.0781 25.5233 49.9457 29.6347 50.4762C33.7462 51.0067 37.9181 50.1707 41.5077 48.0969C45.0973 46.0232 47.9055 42.8267 49.4998 38.9999M50.6664 48.3332V38.9999H41.3332" stroke="black" stroke-width="2" stroke-linecap="round" stroke-linejoin="round"/>
<defs>
<filter id="filter0_d_1_23" x="2.00058" y="2.00029" width="59.9987" height="59.9994" filterUnits="userSpaceOnUse" color-interpolation-filters="sRGB">
<feFlood flood-opacity="0" result="BackgroundImageFix"/>
<feColorMatrix in="SourceAlpha" type="matrix" values="0 0 0 0 0 0 0 0 0 0 0 0 0 0 0 0 0 0 127 0" result="hardAlpha"/>
<feOffset/>
<feGaussianBlur stdDeviation="1"/>
<feComposite in2="hardAlpha" operator="out"/>
<feColorMatrix type="matrix" values="0 0 0 0 0 0 0 0 0 0 0 0 0 0 0 0 0 0 0.6 0"/>
<feBlend mode="normal" in2="BackgroundImageFix" result="effect1_dropShadow_1_23"/>
<feBlend mode="normal" in="SourceGraphic" in2="effect1_dropShadow_1_23" result="shape"/>
</filter>
</defs>
</svg>
